# xmcd
#
# Track frame offsets: 
#        150
#        18945
#        36300
#        52762
#        68685
#        89295
#        106500
#        122047
#        139812
#        160470
#        176482
#        193410
#        211057
#        228285
#        245925
#
# Disc length: 3523 seconds
#
# Revision: 0
# Processed by: cddbd v1.5.1PL2 Copyright (c) Steve Scherf et al.
# Submitted via: ExactAudioCopy v0.95b1
#
DISCID=c90dc10f
DTITLE=Danish Blue - Danish Blue
DYEAR=2000
DGENRE=Blues
TTITLE0=Moonsilver
TTITLE1=Slow turning
TTITLE2=Call me the breeze
TTITLE3=Watching the river flow
TTITLE4=Slow train
TTITLE5=On a night like this
TTITLE6=Halleluja
TTITLE7=How long
TTITLE8=Rambeling
TTITLE9=Silvio
TTITLE10=Night and Day
TTITLE11=the weight
TTITLE12=16 tons
TTITLE13=On a morning like this
TTITLE14=Mary Jane's last dance
EXTD=
EXTT0=
EXTT1=
EXTT2=
EXTT3=
EXTT4=
EXTT5=
EXTT6=
EXTT7=
EXTT8=
EXTT9=
EXTT10=
EXTT11=
EXTT12=
EXTT13=
EXTT14=
PLAYORDER=
